PathFileType	4	(X/Y/Z)	Patient4_TMGait_0pt8_01_left_41.trc.trc
DataRate	CameraRate	NumFrames	NumMarkers	Units	OrigDataRate	OrigDataStartFrame	OrigNumFrames
89.743589743590	89.743589743590	4	33	mm	89.743589743590	1	       141
Frame#	Time	Sacral			L.Shoulder			Chest			R.Shoulder			Neck			R.ASIS			L.ASIS			R.Thigh.Superior			R.Thigh.Lateral			R.Thigh.Inferior			R.Patella			L.Thigh.Superior			L.Thigh.Lateral			L.Thigh.Inferior			L.Patella			L.Shank.Superior			L.Shank.Lateral			L.Shank.Inferior			R.Shank.Superior			R.Shank.Lateral			R.Shank.Inferior			R.Heel			R.Midfoot.Superior			R.Midfoot.Lateral			R.Toe			L.Heel			L.Midfoot.Lateral			L.Midfoot.Superior			L.Toe			L.Elbow			L.Wrist			R.Elbow			R.Wrist			
		X1	Y1	Z1	X2	Y2	Z2	X3	Y3	Z3	X4	Y4	Z4	X5	Y5	Z5	X6	Y6	Z6	X7	Y7	Z7	X8	Y8	Z8	X9	Y9	Z9	X10	Y10	Z10	X11	Y11	Z11	X12	Y12	Z12	X13	Y13	Z13	X14	Y14	Z14	X15	Y15	Z15	X16	Y16	Z16	X17	Y17	Z17	X18	Y18	Z18	X19	Y19	Z19	X20	Y20	Z20	X21	Y21	Z21	X22	Y22	Z22	X23	Y23	Z23	X24	Y24	Z24	X25	Y25	Z25	X26	Y26	Z26	X27	Y27	Z27	X28	Y28	Z28	X29	Y29	Z29	X30	Y30	Z30	X31	Y31	Z31	X32	Y32	Z32	X33	Y33	Z33	

1	45.440000000000	885.825231379210	1012.284627126592	526.649417981037	1032.684209249752	1443.205748384174	336.352942734563	1153.259379169544	1379.125664471744	487.877036097563	1081.925615757541	1446.499097047127	669.824884000941	1026.633219151824	1503.305980355819	492.894852097677	1117.378057791414	952.101695305290	630.300725211562	1090.098340107072	970.610326262612	359.211168507357	1148.538601327118	746.413566936460	606.234247118726	1060.768862734060	638.139455306754	662.266033020948	1139.619140127692	584.478327594805	586.718285234495	1135.116433674824	495.390284201969	592.752849986195	1171.772547524618	784.402784937174	373.155838106017	1116.446497124438	660.044280585817	294.225404942492	1226.295367984001	594.631900831686	340.165534391267	1237.755855863682	505.512527707641	329.823981225503	1171.287655383405	438.145061066888	327.026846265401	1027.068902707658	394.504131345602	288.489921106608	1021.921855215338	263.746218674637	340.312534667339	1103.375034840705	408.113241560262	594.601518114687	1023.522534952621	305.286056126326	647.103078411143	1068.599637238876	210.950261573573	584.231233265770	931.049980058293	48.949071667003	539.019539167488	1104.601765902128	99.320190517915	584.503197526900	1011.999506634496	38.558790983278	615.638447900946	1220.151316507896	40.835382924129	612.647134159219	835.938926194904	188.978750142302	391.697620745116	888.472364823006	153.987900245729	302.790832292194	994.897351311341	165.659568957296	316.570746788676	1074.696460848540	61.784097985222	270.551168324712	1011.537466661236	1087.262337209269	229.989809022557	1191.605950260397	895.261574212993	241.634477374437	1082.411151275431	1093.455014839909	787.096896350068	1225.700238398123	875.173550772700	774.315227017679	
2	45.451142857143	884.226199696607	1012.355248712396	527.241345480481	1030.735762610659	1443.068859064220	336.925348819853	1151.838790783411	1378.792419230994	487.905439027075	1081.475853940602	1446.050419389236	670.282759867244	1025.709669533959	1503.224573849655	493.501262946968	1115.754414573119	951.891767628552	630.334059373951	1087.825969046588	970.677940005542	359.109849367111	1144.381187318072	745.596070497243	605.613526926678	1055.625641379903	638.077902913453	662.297409429443	1133.037885233610	583.605383607456	586.365803409750	1127.362512248028	494.940164089290	592.242883316776	1171.122931660322	786.969450191989	373.214425106597	1118.029023282248	661.616768049574	293.521146308446	1228.539174785954	598.172464171910	339.875427942406	1241.932796471262	510.125932047621	329.451330659939	1178.682580504265	440.987252603539	326.165080904770	1037.451897338051	390.360560352661	286.921894474955	1039.033082767837	259.490294475486	338.051212037503	1095.455296854109	407.706714715866	594.215000988403	1015.315346308166	305.205328262328	646.888037862718	1059.914720755861	210.693369598027	583.978095272464	921.613814488386	48.849396178207	538.991121929491	1095.165159109506	99.314651635207	584.562630886647	1002.602737753372	38.576452824909	615.683344984663	1210.742461951067	40.790242542078	612.818406692901	857.891437655617	175.310059888234	388.408759516684	912.151408174724	143.370017352880	299.644891928383	1017.430433466855	160.371559728112	313.846569093502	1102.291166188963	61.217602113574	267.935963857566	1005.198784187538	1086.862987561100	232.579427427901	1164.582035081125	881.580949743412	241.766962861282	1094.191402967100	1093.782301482693	787.316138977678	1249.874107390989	886.249586910255	771.783817273792	
3	45.462285714286	882.614841775476	1012.390861710372	527.781964307741	1028.851456472486	1442.885873705098	337.468073621992	1150.455039419165	1378.412599583512	487.926727505119	1081.030711155776	1445.572500405338	670.714904481560	1024.806992517929	1503.094316638439	494.086685193987	1114.135081474283	951.632427877416	630.348329112370	1085.591605982899	970.698544362751	358.997223516438	1140.255410443414	744.730136206988	605.001823202500	1050.472145861044	637.980390183341	662.292852097412	1126.478259602520	582.691823768780	585.997291551798	1119.635406555186	494.459360505607	591.694945744674	1170.420267616567	789.393098101026	373.286605637232	1119.511905100314	663.096904085742	292.874714468050	1230.622075618586	601.542740038511	339.672562347782	1245.913568723425	514.588667373259	329.145436247284	1185.870146144959	443.738489008998	325.340773561663	1047.695749196831	386.174978289416	285.371196371003	1056.013539107344	255.252208335751	335.777865966196	1087.572965514480	407.273012482565	593.790377604566	1007.170395347388	305.089384426843	646.649202613667	1051.296859295142	210.408350454133	583.694622047902	912.296683810492	48.697522083209	538.950867317692	1085.830065116523	99.298382642901	584.592333378617	993.314226279738	38.580761452742	615.720382639170	1201.443404383509	40.768614217457	612.977995828514	879.811308507734	161.728196540505	385.096059736260	935.743715148615	132.860625846791	296.464869087052	1039.836719858484	155.146457499961	311.098813443649	1129.681245239911	60.735949316759	265.271895433761	998.896452446645	1086.433328842018	235.114417140650	1137.767905188582	868.498129362076	241.863237963615	1105.773325583796	1094.160287758231	787.502781091123	1273.632064309254	897.425824321578	769.198982470948	
4	45.473428571429	880.973752953710	1012.349663797352	528.213114355896	1027.093165275762	1442.596878214037	337.940421330723	1149.144827289541	1377.919009637991	487.918717072411	1080.602526963314	1445.018092022397	671.083088864193	1023.951503344227	1502.852666559865	494.616507791382	1112.513284514052	951.261250804774	630.319351708826	1083.419654300587	970.602052911252	358.850833959679	1136.147702130704	743.754180474177	604.397469781889	1045.254010580770	637.809501562279	662.220090306321	1119.896324019244	581.691345145783	585.590711206660	1111.890790997026	493.910859270330	591.075071179932	1169.580097536208	791.502744390326	373.384068223898	1120.779382401043	664.373515872006	292.301673985599	1232.354143191930	604.549593740346	339.626991914280	1249.483796516668	518.751369475392	328.967151429882	1192.668604303080	446.323983537482	324.585777790483	1057.779288548102	381.881409123525	283.823957612255	1072.894713788308	251.079436442605	333.480144294322	1079.684317200611	406.784949915505	593.297644625170	999.062647589812	304.904544862017	646.370975397268	1042.712925772014	210.066520767121	583.354404382263	903.100728859488	48.448769575996	538.891227001100	1076.582571495712	99.260526675808	584.568287007222	984.127812715045	38.559338101610	615.745425102158	1192.250664884542	40.790511968273	613.115505330372	901.920916333931	148.308353939693	381.719430224697	959.446556671450	122.570415584851	293.223010150956	1062.226016757094	150.095145203841	308.313596112250	1156.928273886683	60.532905674094	262.575626207796	992.541878491992	1085.982103022153	237.522993994077	1111.177808688946	856.594713844317	241.888580287954	1117.057084686108	1094.652752319212	787.603310319008	1296.684347482393	909.014480394187	766.455946546968	
